<svg width="76" height="18" viewBox="0 0 76 18" fill="none" xmlns="http://www.w3.org/2000/svg">
<path d="M12.2478 9.42578C9.96775 9.42578 8.13812 11.2472 8.13812 13.517C8.13812 15.7868 9.96775 17.6083 12.2478 17.6083C14.5278 17.6083 16.3574 15.7868 16.3574 13.517C16.3574 11.2472 14.5278 9.42578 12.2478 9.42578ZM12.2478 14.778C11.4596 14.778 10.8685 14.1895 10.8685 13.4049C10.8685 12.6203 11.4596 12.0318 12.2478 12.0318C13.0359 12.0318 13.627 12.6203 13.627 13.4049C13.5989 14.2176 13.0078 14.778 12.2478 14.778Z" fill="#099BC3"/>
<path d="M12.2478 -0.00292969C9.96775 -0.00292969 8.13812 1.81851 8.13812 4.08831C8.13812 6.3581 9.96775 8.17954 12.2478 8.17954C14.5278 8.17954 16.3574 6.3581 16.3574 4.08831C16.3292 1.81851 14.5278 -0.00292969 12.2478 -0.00292969ZM12.2478 5.37733C11.4596 5.37733 10.8685 4.78886 10.8685 4.00424C10.8685 3.21962 11.4596 2.63116 12.2478 2.63116C13.0359 2.63116 13.627 3.21962 13.627 4.00424C13.627 4.78886 13.0078 5.37733 12.2478 5.37733Z" fill="#099BC3"/>
<path d="M4.11317 4.64795C1.83317 4.64795 0.00354004 6.46939 0.00354004 8.73919C0.00354004 11.009 1.83317 12.8304 4.11317 12.8304C6.39317 12.8304 8.2228 11.009 8.2228 8.73919C8.2228 6.46939 6.39317 4.64795 4.11317 4.64795ZM4.11317 10.0282C3.32502 10.0282 2.73391 9.43974 2.73391 8.65512C2.73391 7.8705 3.32502 7.28203 4.11317 7.28203C4.90132 7.28203 5.49243 7.8705 5.49243 8.65512C5.46428 9.46776 4.87317 10.0282 4.11317 10.0282Z" fill="#099BC3"/>
<path d="M25.8694 9.44017C25.8694 7.19839 24.0398 5.37695 21.7879 5.37695H20.3805V6.38575C20.2398 5.79729 19.7049 5.37695 19.0575 5.37695C18.2975 5.37695 17.7064 5.99344 17.7064 6.72202V9.44017V12.1583C17.7064 12.9149 18.3257 13.5034 19.0575 13.5034C19.8175 13.5034 20.4086 12.8869 20.4086 12.1583V9.44017C20.4086 8.68357 21.0279 8.0951 21.7598 8.0951C22.5198 8.0951 23.1109 8.71159 23.1109 9.44017V12.1583C23.1109 12.9149 23.7301 13.5034 24.462 13.5034C25.222 13.5034 25.8131 12.8869 25.8131 12.1583L25.8694 9.44017Z" fill="white"/>
<path d="M60.6595 9.44017C60.6595 7.19839 58.8298 5.37695 56.578 5.37695H55.1706V6.38575C55.0298 5.79729 54.495 5.37695 53.8476 5.37695C53.0876 5.37695 52.4965 5.99344 52.4965 6.72202V9.44017V12.1583C52.4965 12.9149 53.1158 13.5034 53.8476 13.5034C54.6076 13.5034 55.1987 12.8869 55.1987 12.1583V9.44017C55.1987 8.68357 55.818 8.0951 56.5498 8.0951C57.3098 8.0951 57.9009 8.71159 57.9009 9.44017V12.1583C57.9009 12.9149 58.5202 13.5034 59.252 13.5034C60.012 13.5034 60.6032 12.8869 60.6032 12.1583L60.6595 9.44017Z" fill="white"/>
<path d="M68.288 10.8131L69.6391 9.468C69.6391 7.22623 67.8095 5.40479 65.5576 5.40479C63.3058 5.40479 61.4761 7.22623 61.4761 9.468C61.4761 11.7098 63.3058 13.5312 65.5576 13.5312H68.288C69.048 13.5312 69.6391 12.9147 69.6391 12.1861C69.6391 11.4576 69.048 10.8131 68.288 10.8131ZM64.9384 10.6449C64.488 10.4208 64.2065 9.9724 64.2065 9.43998C64.2065 8.68338 64.8258 8.09491 65.5576 8.09491C66.0924 8.09491 66.5428 8.40316 66.768 8.82349L64.9384 10.6449Z" fill="white"/>
<path d="M42.448 5.517C41.7724 5.18073 40.9561 5.46095 40.6183 6.13349L39.1265 9.13186L37.6065 6.13349C37.2687 5.46095 36.4524 5.18073 35.7769 5.517C35.1013 5.85326 34.8198 6.66591 35.1576 7.33844L37.8317 12.6626C38.085 13.167 38.4509 13.5033 39.0983 13.5033C39.7176 13.5033 40.1117 13.111 40.365 12.6626L43.0391 7.33844C43.405 6.66591 43.1235 5.85326 42.448 5.517Z" fill="white"/>
<path d="M30.766 5.37695C28.5141 5.37695 26.6845 7.19839 26.6845 9.44017C26.6845 11.6819 28.5141 13.5034 30.766 13.5034C33.0178 13.5034 34.8475 11.6819 34.8475 9.44017C34.8475 7.19839 33.0178 5.37695 30.766 5.37695ZM30.766 10.8133C30.006 10.8133 29.4149 10.1968 29.4149 9.46819C29.4149 8.73961 30.0341 8.12312 30.766 8.12312C31.526 8.12312 32.1171 8.73961 32.1171 9.46819C32.1171 10.1968 31.526 10.8133 30.766 10.8133Z" fill="white"/>
<path d="M47.4298 10.8133C46.6698 10.8133 46.0787 10.1968 46.0787 9.46819C46.0787 8.71159 46.6979 8.12312 47.4298 8.12312C48.1898 8.12312 48.7809 8.73961 48.7809 9.46819C48.809 10.1968 48.1898 10.8133 47.4298 10.8133ZM51.5394 9.44017C51.5394 7.19839 49.7098 5.37695 47.4579 5.37695C45.2061 5.37695 43.3764 7.19839 43.3764 9.44017C43.3764 11.6819 45.2061 13.5034 47.4579 13.5034H48.8653V12.4946C49.0061 13.083 49.5409 13.5034 50.1883 13.5034C50.9483 13.5034 51.5394 12.8869 51.5394 12.1583V9.44017Z" fill="white"/>
<path d="M73.2698 12.1583C73.2698 12.9149 72.6505 13.5034 71.9187 13.5034C71.1587 13.5034 70.5676 12.8869 70.5676 12.1583V3.69565C70.5676 2.93905 71.1868 2.35059 71.9187 2.35059C72.6787 2.35059 73.2698 2.96707 73.2698 3.69565V5.37698H74.6209C75.3809 5.37698 75.972 5.99347 75.972 6.72204C75.972 7.47864 75.3528 8.06711 74.6209 8.06711C73.8609 8.06711 73.2698 8.68359 73.2698 9.41217V12.1583Z" fill="white"/>
</svg>
