<svg id="visual" viewBox="0 0 450 900" width="450" height="900" xmlns="http://www.w3.org/2000/svg" xmlns:xlink="http://www.w3.org/1999/xlink" version="1.1"><rect x="0" y="0" width="450" height="900" fill="#37406a"></rect><path d="M0 504L25 508.2C50 512.3 100 520.7 150 545.8C200 571 250 613 300 626.5C350 640 400 625 425 617.5L450 610L450 0L425 0C400 0 350 0 300 0C250 0 200 0 150 0C100 0 50 0 25 0L0 0Z" fill="#37406a"></path><path d="M0 452L25 463.7C50 475.3 100 498.7 150 501C200 503.3 250 484.7 300 469.5C350 454.3 400 442.7 425 436.8L450 431L450 0L425 0C400 0 350 0 300 0C250 0 200 0 150 0C100 0 50 0 25 0L0 0Z" fill="#3c4671"></path><path d="M0 416L25 411.5C50 407 100 398 150 377C200 356 250 323 300 330C350 337 400 384 425 407.5L450 431L450 0L425 0C400 0 350 0 300 0C250 0 200 0 150 0C100 0 50 0 25 0L0 0Z" fill="#424c78"></path><path d="M0 291L25 286.2C50 281.3 100 271.7 150 259C200 246.3 250 230.7 300 211.7C350 192.7 400 170.3 425 159.2L450 148L450 0L425 0C400 0 350 0 300 0C250 0 200 0 150 0C100 0 50 0 25 0L0 0Z" fill="#48527f"></path><path d="M0 129L25 137C50 145 100 161 150 171C200 181 250 185 300 169.2C350 153.3 400 117.7 425 99.8L450 82L450 0L425 0C400 0 350 0 300 0C250 0 200 0 150 0C100 0 50 0 25 0L0 0Z" fill="#4e5887"></path></svg>