<svg width="20" height="21" viewBox="0 0 20 21" fill="none" xmlns="http://www.w3.org/2000/svg">
<path d="M19.2516 5.8016C19.6387 5.99514 19.9096 6.42095 19.9096 6.84676V19.2338C19.9096 19.9306 19.329 20.4725 18.6709 20.4725C17.9741 20.4725 17.4322 19.9306 17.4322 19.2338V7.58224L9.99997 3.32418L2.56773 7.58224V19.2338C2.56773 19.9306 1.98709 20.4725 1.32903 20.4725C0.632253 20.4725 0.0903187 19.9306 0.0903187 19.2338V6.84676C0.0903187 6.42095 0.322576 5.99514 0.709672 5.8016L9.38062 0.84677C9.72901 0.614512 10.2322 0.614512 10.5806 0.84677L19.2516 5.8016ZM8.45159 7.15643C8.45159 6.30482 9.10965 5.60805 9.99997 5.60805C10.8516 5.60805 11.5484 6.30482 11.5484 7.15643C11.5484 8.04675 10.8516 8.70482 9.99997 8.70482C9.10965 8.70482 8.45159 8.04675 8.45159 7.15643ZM8.76127 20.4725C8.21933 20.4725 7.83224 20.0854 7.83224 19.5435V12.808L6.78708 14.7435C6.51611 15.1693 5.97418 15.3629 5.50966 15.1306C5.04515 14.8596 4.89031 14.3177 5.12257 13.8532L6.59353 11.1435C7.21288 10.0209 8.33546 9.32417 9.61288 9.32417H10.3484C11.6258 9.32417 12.7484 10.0209 13.3677 11.1435L14.8387 13.8532C15.0709 14.3177 14.9161 14.8596 14.4516 15.1306C13.9871 15.3629 13.4451 15.1693 13.1742 14.7435L12.1677 12.808V19.5435C12.1677 20.0854 11.7419 20.4725 11.2387 20.4725C10.6967 20.4725 10.3097 20.0854 10.3097 19.5435V16.1371H9.6903V19.5435C9.6903 20.0854 9.26449 20.4725 8.76127 20.4725Z" fill="#0B94B8"/>
</svg>
