<svg width="21" height="20" viewBox="0 0 21 20" fill="none" xmlns="http://www.w3.org/2000/svg">
<path d="M12.9568 13.8826V12.0245H20.3893V17.5989C20.3893 18.6054 19.499 19.457 18.5312 19.457H2.42747C1.42098 19.457 0.569344 18.6054 0.569344 17.5989V12.0245H8.00184V13.8826C8.00184 14.231 8.27282 14.502 8.62122 14.502H12.3375C12.6472 14.502 12.9568 14.231 12.9568 13.8826ZM18.5312 4.59202C19.499 4.59202 20.3893 5.48237 20.3893 6.45014V10.7858H0.569344V6.45014C0.569344 5.48237 1.42098 4.59202 2.42747 4.59202H5.52434V2.73389C5.52434 1.76612 6.37598 0.87577 7.38247 0.87577H13.5762C14.544 0.87577 15.4343 1.76612 15.4343 2.73389V4.59202H18.5312ZM13.5762 4.59202V2.73389H7.38247V4.59202H13.5762Z" fill="#0B94B8"/>
</svg>
