<svg width="27" height="20" viewBox="0 0 27 20" fill="none" xmlns="http://www.w3.org/2000/svg">
<path d="M25.2083 6.41572C25.789 6.7641 26.0213 7.5383 25.6729 8.11894C25.3632 8.69958 24.589 8.93184 24.0084 8.58345L13.4406 2.73831L2.91163 8.58345C2.33098 8.93184 1.55679 8.69958 1.24711 8.11894C0.898728 7.5383 1.13099 6.7641 1.71163 6.41572L12.86 0.260893C13.2471 0.0286356 13.6729 0.0286356 14.06 0.260893L25.2083 6.41572ZM11.8923 7.80926C11.8923 6.95765 12.589 6.26088 13.4406 6.26088C14.331 6.26088 14.989 6.95765 14.989 7.80926C14.989 8.69958 14.331 9.35765 13.4406 9.35765C12.589 9.35765 11.8923 8.69958 11.8923 7.80926ZM5.07936 11.5254C5.07936 10.6738 5.77614 9.977 6.62775 9.977C7.51807 9.977 8.17613 10.6738 8.17613 11.5254C8.17613 12.4157 7.51807 13.0738 6.62775 13.0738C5.77614 13.0738 5.07936 12.4157 5.07936 11.5254ZM21.8019 11.5254C21.8019 12.4157 21.1438 13.0738 20.2535 13.0738C19.4019 13.0738 18.7051 12.4157 18.7051 11.5254C18.7051 10.6738 19.4019 9.977 20.2535 9.977C21.1438 9.977 21.8019 10.6738 21.8019 11.5254ZM9.84064 19.1125L8.79548 17.177V18.6479C8.79548 19.3447 8.25355 19.8867 7.55678 19.8867H5.69872C5.04065 19.8867 4.46001 19.3447 4.46001 18.6479V17.177L3.45356 19.1125C3.18259 19.5383 2.64066 19.7318 2.17614 19.4996C1.71163 19.2286 1.55679 18.6867 1.78905 18.2221L3.26001 15.5125C3.87937 14.3899 5.00194 13.6931 6.27936 13.6931H7.01484C7.67291 13.6931 8.25355 13.8867 8.79548 14.1963L10.0729 11.7964C10.6923 10.6738 11.8148 9.977 13.0922 9.977H13.8277C15.1051 9.977 16.2277 10.6738 16.8471 11.7964L18.1245 14.1963C18.6664 13.8867 19.2471 13.6931 19.9051 13.6931H20.6406C21.918 13.6931 23.0406 14.3899 23.66 15.5125L25.1309 18.2221C25.3632 18.6867 25.2083 19.2286 24.7438 19.4996C24.2793 19.7318 23.7374 19.5383 23.4664 19.1125L22.4213 17.177V18.6479C22.4213 19.3447 21.8793 19.8867 21.1826 19.8867H19.3245C18.6664 19.8867 18.0858 19.3447 18.0858 18.6479V17.177L17.0793 19.1125C16.8084 19.5383 16.2664 19.7318 15.8019 19.4996C15.3374 19.2286 15.1826 18.6867 15.4148 18.2221L16.8471 15.6286C16.7697 15.5512 16.7309 15.4738 16.6535 15.3963L15.6084 13.4609V15.5512C15.6084 16.248 15.0664 16.7899 14.3697 16.7899H12.5116C11.8535 16.7899 11.2729 16.248 11.2729 15.5512V13.4609L10.2664 15.3963C10.189 15.4738 10.1503 15.5512 10.0729 15.6286L11.5052 18.2221C11.7374 18.6867 11.5826 19.2286 11.1181 19.4996C10.6535 19.7318 10.1116 19.5383 9.84064 19.1125Z" fill="#0B94B8"/>
</svg>
