<svg width="25" height="21" viewBox="0 0 25 21" fill="none" xmlns="http://www.w3.org/2000/svg">
<path d="M19.9116 17.995C20.5696 17.995 21.1503 18.5756 21.1503 19.2337C21.1503 19.9305 20.5696 20.4724 19.8729 20.4724H5.00839C4.35033 20.4724 3.8084 19.8531 3.8084 19.2337C3.8084 18.5756 4.35033 17.995 5.00839 17.995H19.9116ZM23.0084 0.653107C24.0148 0.653107 24.8664 1.50472 24.8664 2.51117V14.8982C24.8664 15.9434 24.0148 16.7563 23.0084 16.7563H1.95034C0.905177 16.7563 0.0922756 15.9434 0.0922756 14.8982V2.51117C0.0922756 1.50472 0.905177 0.653107 1.95034 0.653107H23.0084ZM22.389 14.2789V3.13052H2.56969V14.2789H22.389Z" fill="#0B94B8"/>
</svg>
