<svg width="200" height="200" viewBox="0 0 140 140" fill="none" xmlns="http://www.w3.org/2000/svg">

<path d="M69.8686 73.1246L74.7626 49.9735H82.4797C84.1394 49.9735 85.4728 50.1863 86.5084 50.6261C87.5298 51.0658 88.2816 51.6616 88.7639 52.4135C89.2321 53.1795 89.4732 54.0448 89.4732 55.0236C89.4732 56.0734 89.2888 56.9813 88.92 57.7757C88.5511 58.5559 88.0263 59.2226 87.317 59.7475C86.6077 60.2723 85.7566 60.6979 84.7636 60.9958V61.1235C85.6856 61.4356 86.4375 61.9746 86.9765 62.7407C87.5298 63.5067 87.7993 64.4429 87.7993 65.5494C87.7993 67.351 87.3879 68.8121 86.5509 69.9328C85.7282 71.0535 84.6075 71.8621 83.2031 72.3727C81.7987 72.8834 80.2383 73.1388 78.5218 73.1388H69.8544L69.8686 73.1246ZM77.0891 68.2873H78.3942C79.0325 68.2873 79.5858 68.1596 80.0539 67.9184C80.522 67.6773 80.905 67.351 81.1746 66.9396C81.4441 66.5282 81.5718 66.0885 81.5718 65.592C81.5718 64.8685 81.4015 64.3153 81.0469 63.9606C80.6923 63.606 80.0823 63.4216 79.2027 63.4216H78.1246L77.0749 68.2873H77.0891ZM79.0751 58.8538H80.2099C80.9334 58.8538 81.5008 58.7403 81.9122 58.5275C82.3236 58.3147 82.6073 58.0168 82.7776 57.6338C82.9478 57.2508 83.0329 56.811 83.0329 56.3145C83.0329 55.818 82.8627 55.3924 82.5364 55.1229C82.2101 54.8392 81.6994 54.6974 81.0185 54.6974H80.0255L79.0751 58.8396V58.8538Z" fill="#28357E"/>
<path d="M93.2187 73.1246L96.9637 55.0804H91.9562L93.0485 49.9735H109.319L108.199 55.0804H103.163L99.4037 73.1246H93.2187Z" fill="#28357E"/>
<path d="M60.2085 75.0824L40.6606 91.4811C38.5186 93.2827 35.3126 92.999 33.511 90.8569C32.7166 89.9065 32.3194 88.7574 32.3194 87.5942C32.3194 86.1473 32.9294 84.7003 34.1352 83.7073L53.6831 67.3086C55.8251 65.5071 59.0311 65.7908 60.8327 67.9328C62.6343 70.0749 62.3505 73.2808 60.2085 75.0824Z" fill="#E52A2A"/>
<path d="M52.1793 65.521L39.5966 76.0752C37.4546 77.8768 34.2486 77.593 32.447 75.451C31.6526 74.5006 31.2554 73.3515 31.2554 72.1883C31.2554 70.7414 31.8796 69.3086 33.0712 68.3014L45.6539 57.7472C47.796 55.9457 51.0019 56.2294 52.8035 58.3714C54.6051 60.5134 54.3214 63.7194 52.1793 65.521Z" fill="#28357E"/>
<path d="M44.1502 55.9459L39.3412 59.9888C37.1992 61.7904 33.9932 61.5067 32.1916 59.3647C31.3972 58.4142 31 57.2652 31 56.102C31 54.655 31.6242 53.2223 32.8158 52.2151L37.6247 48.1863C39.7668 46.3847 42.9586 46.6685 44.7743 48.8105C46.5759 50.9525 46.2922 54.1585 44.1502 55.9601" fill="#FFDD00"/>
<path d="M69.5144 77.267C70.1953 77.1109 71.1599 76.9974 72.1387 76.9974C73.3161 76.9974 74.4226 77.2811 75.1177 77.9337C75.6993 78.4727 75.9972 79.182 75.9972 80.1325C75.9972 81.5085 75.3305 82.6433 74.5361 83.3101C73.5998 84.1045 72.2238 84.4591 70.862 84.4591C70.4081 84.4591 69.9967 84.4166 69.6137 84.374L68.6916 89.2397H67.2163L69.5002 77.2811L69.5144 77.267ZM69.8548 83.1115C70.2804 83.1966 70.635 83.2391 71.0606 83.2391C73.1175 83.2391 74.4794 81.9624 74.4794 80.246C74.4794 78.799 73.458 78.2316 72.0678 78.2316C71.472 78.2316 71.018 78.2883 70.7485 78.3593L69.8406 83.1115H69.8548Z" fill="#E52A2A"/>
<path d="M81.714 89.2255C81.714 88.7007 81.7991 87.8779 81.9126 86.97H81.87C80.9196 88.7716 79.728 89.4241 78.4796 89.4241C76.9476 89.4241 75.9688 88.2042 75.9688 86.5444C75.9688 83.5229 78.2101 80.3027 82.0119 80.3027C82.8346 80.3027 83.7567 80.4446 84.3525 80.6432L83.473 85.1826C83.1893 86.7005 83.0616 88.2467 83.09 89.2255H81.6998H81.714ZM82.6928 81.622C82.48 81.5653 82.1537 81.4943 81.643 81.4943C79.3875 81.4943 77.5575 83.8492 77.5292 86.2749C77.5292 87.2537 77.8696 88.2042 79.0187 88.2042C80.267 88.2042 81.7423 86.587 82.1679 84.2605L82.6786 81.6362L82.6928 81.622Z" fill="#E52A2A"/>
<path d="M85.4308 91.2115C85.9556 91.5378 86.821 91.7931 87.743 91.7931C89.2042 91.7931 90.3532 91.0413 90.8781 88.6722L91.1618 87.3814H91.105C90.3532 88.6297 89.2893 89.2397 88.0835 89.2397C86.3386 89.2397 85.4308 87.7644 85.4308 86.2181C85.4166 83.2675 87.587 80.3311 90.9632 80.3311C91.9704 80.3311 93.0769 80.6148 93.7578 80.941L92.4243 88.1474C92.0697 89.9915 91.5732 91.2682 90.6511 92.0343C89.7858 92.7861 88.6084 93.0131 87.6012 93.0131C86.5372 93.0131 85.5442 92.7577 84.991 92.4031L85.4166 91.2257L85.4308 91.2115ZM92.1122 81.8064C91.8427 81.6787 91.3036 81.5226 90.6653 81.5226C88.4807 81.5226 86.9912 83.7924 86.977 85.9628C86.977 86.9132 87.3175 88.0481 88.6509 88.0481C89.9844 88.0481 91.2327 86.4309 91.559 84.7144L92.1122 81.8064Z" fill="#E52A2A"/>
<path d="M103.149 83.9485C103.149 86.6296 101.234 89.4241 98.3256 89.4241C96.141 89.4241 94.921 87.807 94.921 85.8352C94.921 82.9696 96.9212 80.3027 99.7441 80.3027C102.099 80.3027 103.149 82.0901 103.149 83.9485ZM96.4672 85.7926C96.4672 87.2112 97.2474 88.2467 98.5242 88.2467C100.283 88.2467 101.617 85.977 101.617 83.9343C101.617 82.9271 101.149 81.5085 99.5739 81.5085C97.7014 81.5085 96.4389 83.7924 96.453 85.7926H96.4672Z" fill="#E52A2A"/>
<path d="M104.255 87.7217C104.666 87.9771 105.432 88.2608 106.128 88.2608C107.135 88.2608 107.787 87.6082 107.787 86.8422C107.787 86.1613 107.475 85.7499 106.582 85.2392C105.574 84.686 105.007 83.9058 105.007 83.0262C105.007 81.4942 106.326 80.3168 108.156 80.3168C108.951 80.3168 109.646 80.5296 109.972 80.7423L109.561 81.8772C109.248 81.6928 108.695 81.48 108.043 81.48C107.135 81.48 106.496 82.0332 106.496 82.7993C106.496 83.4234 106.908 83.8206 107.688 84.2604C108.667 84.8136 109.334 85.5797 109.334 86.5443C109.334 88.3884 107.844 89.4098 106 89.4098C105.064 89.4098 104.241 89.1261 103.844 88.814L104.255 87.7217Z" fill="#E52A2A"/>
</svg>
